<?xml version="1.0" standalone="no"?>
<!DOCTYPE svg PUBLIC "-//W3C//DTD SVG 20010904//EN"
 "http://www.w3.org/TR/2001/REC-SVG-20010904/DTD/svg10.dtd">
<svg version="1.0" xmlns="http://www.w3.org/2000/svg"
 width="920.000000pt" height="815.000000pt" viewBox="0 0 920.000000 815.000000"
 preserveAspectRatio="xMidYMid meet">

<g transform="translate(0.000000,815.000000) scale(0.100000,-0.100000)"
fill="#000000" stroke="none">
<path d="M6685 8139 c-385 -37 -757 -196 -999 -429 -84 -81 -189 -205 -230
-273 -103 -172 -157 -269 -152 -274 3 -4 7 -4 9 -2 1 2 41 56 89 119 221 295
480 528 638 575 14 4 95 37 180 73 168 71 361 130 510 156 52 10 131 24 175
32 44 8 92 14 108 14 15 0 27 5 27 10 0 12 -224 11 -355 -1z"/>
<path d="M7120 7818 c0 -2 -3 -79 -6 -173 -3 -93 -11 -278 -19 -409 -8 -132
-13 -242 -10 -244 9 -10 -16 -41 -36 -44 -15 -2 -35 -34 -80 -128 -70 -146
-70 -129 -4 -356 49 -168 53 -189 30 -180 -26 9 -1149 8 -1153 -2 -1 -5 50
-12 115 -16 195 -11 461 -66 648 -134 179 -65 308 -130 462 -234 l72 -48 112
72 c295 187 723 322 1087 344 61 3 112 10 112 15 0 6 -245 9 -592 9 l-593 0 1
29 c1 16 23 100 49 186 34 114 44 165 39 187 -12 58 -116 258 -134 258 -30 0
-40 23 -40 95 0 39 -6 170 -14 291 -8 120 -18 279 -21 352 -4 72 -11 132 -16
132 -5 0 -9 -1 -9 -2z"/>
<path d="M6000 7630 c-92 -74 -193 -182 -270 -290 -147 -205 -349 -543 -490
-820 -35 -69 -85 -165 -112 -215 -27 -49 -47 -96 -45 -105 2 -10 8 -5 19 15
34 63 192 313 239 376 67 91 144 161 172 157 20 -3 22 -8 22 -63 -1 -48 -20
-117 -99 -355 -54 -162 -115 -343 -137 -402 -39 -109 -47 -140 -30 -122 11 10
39 84 118 304 63 178 161 421 296 735 200 465 257 587 347 739 27 46 50 87 50
90 0 15 -22 2 -80 -44z"/>
<path d="M1754 6791 c-114 -33 -203 -105 -289 -234 -21 -31 -43 -57 -49 -57
-7 0 -39 10 -71 22 -88 32 -193 31 -266 -3 -65 -31 -174 -132 -165 -154 3 -8
-6 -27 -20 -42 -63 -68 -114 -243 -114 -394 0 -48 -4 -70 -16 -80 -27 -22 -54
-87 -54 -129 0 -40 19 -90 47 -121 12 -15 8 -21 -34 -56 -26 -21 -72 -56 -101
-77 -67 -48 -143 -142 -185 -226 -28 -57 -32 -74 -32 -145 0 -93 4 -101 125
-286 67 -103 81 -129 77 -154 -11 -66 -91 -248 -152 -346 -36 -57 -72 -126
-80 -153 -33 -109 -10 -241 75 -431 76 -172 93 -290 66 -455 -29 -177 -110
-301 -299 -453 -122 -99 -151 -131 -182 -200 -46 -100 -44 -173 12 -376 10
-35 24 -66 32 -69 10 -3 12 0 7 14 -15 36 -18 169 -7 225 19 92 74 170 236
338 153 159 209 235 248 339 19 50 22 76 21 207 -1 165 -12 221 -90 435 -35
96 -38 114 -38 210 0 111 10 156 59 265 62 140 89 235 100 360 l8 80 17 -41
c34 -79 34 -98 0 -171 -47 -99 -60 -149 -60 -233 0 -90 24 -185 73 -297 65
-147 123 -500 115 -702 -5 -129 -5 -129 -119 -328 -83 -144 -151 -283 -192
-393 -39 -105 -77 -273 -77 -342 0 -112 98 -438 131 -438 12 0 12 -2 -12 75
-52 169 -61 296 -29 435 38 170 91 283 243 520 96 151 119 205 137 333 20 141
1 264 -84 541 -20 65 -34 121 -31 124 8 8 131 -256 154 -333 28 -91 51 -224
51 -295 0 -78 -25 -204 -65 -330 -60 -187 -68 -232 -67 -398 l0 -154 -48 -101
c-89 -189 -150 -407 -150 -534 0 -67 15 -62 24 9 29 237 152 578 208 578 17 0
197 74 323 133 169 79 282 139 376 199 42 26 80 48 86 48 5 0 22 -46 37 -102
15 -57 36 -133 48 -170 l21 -68 -28 -42 c-43 -66 -244 -312 -342 -420 -83 -90
-146 -151 -288 -275 -149 -131 45 -8 294 186 85 66 215 177 288 246 73 70 137
124 142 121 5 -3 12 -18 16 -33 3 -15 17 -50 30 -78 63 -134 115 -261 115
-280 0 -31 -222 -350 -359 -515 -147 -177 -291 -338 -381 -427 -103 -101 -129
-142 -54 -83 21 17 138 124 258 238 171 162 257 253 394 417 96 116 181 219
189 230 l14 20 15 -20 c8 -11 17 -31 21 -45 3 -14 19 -42 35 -63 16 -20 49
-88 74 -150 24 -61 51 -125 60 -140 22 -39 31 -10 -130 -422 -59 -153 -132
-323 -221 -513 -31 -68 -54 -126 -51 -129 8 -8 3 -17 99 148 88 151 308 582
348 682 12 31 26 57 29 57 21 0 190 -431 220 -557 6 -29 16 -53 21 -53 5 0 9
5 9 11 0 22 -62 255 -155 584 -91 319 -195 593 -345 905 -185 383 -243 553
-296 860 -71 419 -29 732 140 1020 44 76 52 106 15 60 -51 -63 -144 -212 -179
-285 -50 -106 -75 -183 -96 -291 -32 -171 -48 -183 -128 -97 -116 126 -161
238 -161 398 1 55 9 144 19 197 10 56 16 112 12 132 -4 19 -40 85 -81 146
-150 226 -177 374 -99 540 97 208 102 395 14 521 -66 94 -102 181 -108 260 -4
58 -2 69 11 69 9 0 65 -20 124 -44 156 -64 236 -82 433 -101 190 -18 283 -35
345 -65 22 -10 75 -24 117 -31 87 -14 137 -5 185 35 15 12 52 35 81 51 29 16
71 49 92 74 22 25 56 62 76 82 39 38 38 37 80 259 21 110 24 231 5 253 -7 9
-30 22 -51 28 -40 12 -50 33 -50 100 0 40 -17 45 -25 7 -11 -53 -52 -132 -82
-159 -40 -37 -343 -186 -445 -220 -270 -88 -554 -77 -839 32 l-75 29 3 113 c6
160 17 206 58 249 41 42 83 63 154 79 28 6 51 14 51 19 0 13 -159 0 -218 -17
-102 -31 -124 -95 -82 -245 21 -78 26 -163 10 -173 -5 -3 -37 8 -69 25 -76 41
-96 77 -89 165 11 133 119 278 243 324 75 28 175 28 250 0 31 -12 58 -19 60
-17 2 1 -2 29 -7 61 -9 52 -14 60 -54 88 -25 17 -74 44 -111 61 -54 26 -79 31
-139 32 -65 0 -80 -3 -145 -37 l-73 -37 33 34 c88 91 252 118 378 63 34 -15
66 -27 70 -27 4 0 17 19 27 42 10 22 46 69 80 103 99 101 208 145 361 145 50
0 118 -7 150 -15 93 -24 200 -79 258 -133 110 -103 208 -182 223 -182 9 0 -8
20 -39 46 -31 25 -94 92 -141 148 -116 140 -178 180 -325 211 -93 19 -170 18
-247 -4z m-584 -490 c0 -5 -17 -15 -37 -22 -112 -36 -199 -103 -239 -184 -22
-47 -27 -73 -33 -176 l-6 -121 -29 23 -29 23 6 105 c8 164 54 259 150 316 52
30 217 57 217 36z m1343 -567 c14 -14 -10 -38 -60 -60 -68 -30 -69 -46 0 -28
104 28 114 12 32 -55 -47 -39 -131 -93 -160 -104 -5 -3 -7 -7 -4 -11 4 -4 30
2 58 14 60 23 94 25 109 7 8 -10 5 -20 -11 -38 -36 -43 -128 -114 -191 -150
-73 -40 -61 -48 25 -15 85 32 149 42 149 24 -1 -15 -63 -63 -142 -107 -53 -30
-62 -32 -160 -32 -81 0 -129 6 -223 29 -90 23 -153 32 -256 36 -148 6 -247 26
-419 83 -182 60 -265 106 -346 189 -69 72 -114 137 -102 149 7 7 39 -12 114
-67 75 -56 77 -46 4 27 -64 64 -67 79 -10 50 37 -19 38 -10 3 27 -38 40 -16
35 69 -15 186 -110 415 -167 678 -167 251 0 294 10 560 125 87 37 246 94 266
95 6 0 13 -3 17 -6z m-1703 -190 c0 -4 -30 -38 -66 -77 -41 -43 -78 -95 -98
-136 -29 -61 -31 -74 -31 -171 0 -85 4 -115 22 -160 25 -61 141 -246 149 -237
8 7 -13 79 -53 187 -27 73 -35 110 -36 161 0 133 52 270 129 338 l46 41 30
-18 c16 -9 38 -25 50 -36 20 -18 20 -18 -11 -50 -53 -55 -75 -119 -75 -216 0
-96 11 -135 86 -313 89 -212 92 -285 22 -494 -28 -84 -34 -117 -34 -185 0
-111 27 -166 118 -246 232 -202 232 -201 232 -418 0 -179 11 -241 61 -335 30
-56 130 -169 149 -169 23 0 6 -18 -37 -39 -56 -28 -312 -141 -319 -141 -9 0
-3 41 25 166 54 239 60 449 16 573 -38 107 -115 218 -255 365 -84 88 -91 98
-100 149 -5 30 -6 99 -3 152 7 117 0 118 -54 7 -36 -72 -38 -83 -38 -167 1
-79 5 -99 35 -169 39 -92 99 -184 179 -274 163 -185 186 -241 185 -452 -1
-106 -7 -162 -29 -260 -36 -166 -99 -354 -157 -465 l-15 -29 -14 25 c-9 16
-14 54 -13 114 1 76 7 111 43 225 58 188 63 211 62 327 0 178 -42 302 -175
527 -175 295 -191 362 -142 570 66 273 58 342 -61 526 -103 161 -117 202 -117
340 0 105 2 120 27 174 50 105 133 210 211 268 38 27 56 34 56 22z m259 -440
c29 -57 71 -155 93 -217 37 -100 41 -122 42 -207 1 -86 -2 -102 -31 -167 -48
-108 -73 -209 -73 -292 0 -83 5 -95 95 -225 83 -121 111 -171 134 -239 28 -81
8 -73 -65 26 -78 106 -115 165 -155 252 -45 96 -51 202 -19 352 28 135 24 191
-25 308 -101 243 -136 444 -93 528 9 17 11 17 27 2 10 -8 42 -63 70 -121z
m531 -2223 c0 -22 -49 -54 -225 -147 -114 -60 -304 -138 -313 -129 -3 2 7 35
20 72 l25 67 123 32 c68 18 158 45 199 61 42 15 96 35 121 44 25 9 46 17 48
18 1 0 2 -8 2 -18z m-105 -257 c-128 -111 -298 -222 -469 -305 -114 -56 -152
-69 -144 -51 2 4 32 60 68 125 51 92 70 118 90 122 96 21 273 72 361 105 57
22 111 39 119 39 9 0 -2 -15 -25 -35z"/>
<path d="M801 4695 c-1 -11 6 -77 14 -147 7 -70 12 -138 9 -152 -2 -13 0 -27
5 -30 16 -10 34 104 28 174 -7 76 -21 128 -42 155 -14 20 -14 20 -14 0z"/>
<path d="M1835 6661 c-103 -27 -244 -135 -332 -255 -39 -52 -55 -97 -35 -95 4
0 30 29 59 63 58 71 120 116 200 146 120 45 291 49 418 9 105 -32 342 -184
313 -200 -7 -4 -55 -13 -106 -20 -108 -15 -177 -5 -251 36 -200 111 -306 123
-412 46 -53 -38 -142 -121 -137 -126 2 -3 36 9 74 25 90 39 130 38 234 -6 47
-19 112 -47 145 -60 81 -34 141 -33 245 0 120 40 243 46 328 17 127 -43 196
-117 194 -207 0 -46 -32 -113 -71 -148 -24 -22 -27 -39 -7 -55 11 -9 24 0 64
44 65 70 102 148 109 222 4 50 1 65 -24 113 -37 71 -104 113 -206 130 -147 24
-164 33 -287 135 -82 69 -142 110 -208 142 -87 43 -100 46 -185 49 -51 2 -105
0 -122 -5z"/>
<path d="M1643 6227 c-46 -17 -83 -35 -83 -39 0 -4 26 -5 58 -2 40 4 79 0 133
-14 78 -21 110 -35 264 -117 111 -59 128 -58 315 15 153 59 220 71 268 46 58
-30 77 -102 48 -184 -14 -39 -14 -41 6 -48 28 -9 52 21 74 90 40 128 -37 218
-173 202 -30 -3 -67 -13 -81 -20 -65 -33 -216 -76 -268 -76 -68 0 -103 14
-185 75 -151 112 -231 127 -376 72z"/>
<path d="M4584 6139 c-457 -565 -993 -1097 -1409 -1400 -154 -112 -166 -119
-215 -119 -73 0 -224 -37 -311 -75 -44 -19 -84 -35 -89 -35 -6 0 -10 15 -10
33 0 20 -14 55 -38 92 -21 33 -43 74 -50 90 -20 51 -32 133 -25 180 5 43 20
59 27 33 2 -7 9 -33 16 -58 9 -35 29 -61 84 -115 55 -54 75 -81 86 -119 9 -27
22 -52 29 -54 12 -4 13 7 8 57 -5 49 -19 86 -66 174 -72 136 -82 171 -87 309
-2 60 -7 107 -11 106 -5 0 -31 -17 -60 -36 -39 -25 -53 -42 -58 -66 -32 -154
-62 -275 -92 -359 -68 -197 -117 -268 -220 -319 -56 -27 -77 -32 -137 -32 -87
0 -184 28 -313 91 -97 47 -134 53 -66 10 81 -51 308 -157 393 -183 64 -20 134
-18 180 6 44 23 76 61 115 140 34 68 31 66 51 49 20 -16 49 -79 59 -127 6 -30
3 -37 -32 -70 -164 -156 -344 -441 -426 -675 l-32 -92 1 -255 c0 -216 4 -273
22 -372 57 -310 132 -539 294 -902 231 -515 285 -656 353 -921 36 -142 79
-371 90 -480 3 -33 10 -98 15 -145 6 -47 10 -145 10 -217 0 -82 4 -133 10
-133 16 0 12 378 -5 546 -41 390 -102 614 -300 1104 -216 535 -300 786 -367
1092 -32 146 -31 386 1 542 81 390 213 645 436 839 112 99 286 210 302 194 3
-4 -12 -28 -35 -54 -59 -69 -183 -254 -236 -353 -96 -181 -171 -408 -206 -620
-16 -101 -20 -171 -20 -367 0 -145 4 -243 9 -243 6 0 12 19 15 43 2 23 12 107
20 187 18 164 20 183 43 333 9 59 19 107 24 107 4 0 10 -19 14 -42 50 -331
104 -505 250 -803 127 -259 265 -474 471 -732 164 -203 251 -354 352 -603 104
-258 197 -614 217 -825 3 -38 10 -104 15 -145 5 -41 12 -129 16 -195 3 -66 10
-124 15 -130 11 -11 10 -27 9 205 0 102 -5 214 -10 250 -5 36 -11 90 -15 120
-38 342 -126 651 -276 965 -50 105 -51 121 -16 262 38 155 52 367 37 567 -6
88 -16 180 -21 203 -23 110 -29 188 -18 243 31 152 283 764 358 869 12 16 34
53 49 83 69 129 276 425 391 558 80 91 131 156 131 164 0 15 -19 0 -52 -40
-125 -155 -508 -583 -589 -659 -92 -85 -151 -132 -181 -144 -25 -9 -26 -14
-33 -113 -13 -205 -56 -462 -111 -683 -39 -154 -61 -247 -94 -410 -17 -82 -44
-210 -61 -283 -16 -74 -29 -142 -29 -153 0 -10 -4 -19 -8 -19 -12 0 -233 292
-319 420 -284 426 -410 839 -375 1232 37 426 221 694 643 935 188 108 401 287
679 569 207 210 327 348 531 609 217 278 324 425 307 425 -2 0 -26 -27 -54
-61z m-2171 -1428 c10 -22 33 -51 51 -65 21 -16 41 -44 52 -73 10 -27 21 -53
26 -59 5 -7 -17 -30 -64 -64 -40 -29 -75 -51 -77 -49 -2 2 -6 20 -7 39 -2 20
-13 62 -24 94 -11 33 -20 81 -20 108 0 47 22 108 38 108 5 0 16 -18 25 -39z
m911 -2295 c34 -135 32 -533 -3 -627 -7 -20 -11 -17 -42 32 -28 45 -34 63 -33
109 1 119 51 510 64 510 4 0 11 -11 14 -24z"/>
<path d="M5876 6130 c-26 -70 -686 -2064 -686 -2073 1 -26 32 50 128 313 114
312 309 832 402 1070 23 58 55 142 72 188 17 45 34 82 38 82 6 0 12 -226 27
-1143 3 -225 9 -403 13 -395 4 7 10 130 14 273 3 143 8 323 11 400 16 456 28
844 27 873 -2 40 23 44 33 5 19 -78 502 -1390 531 -1443 23 -43 15 1 -17 90
-43 119 -218 648 -333 1005 -168 521 -254 770 -260 755z"/>
<path d="M8303 5852 c-127 -381 -403 -1201 -512 -1522 -50 -146 -91 -272 -91
-279 0 -27 17 2 43 74 119 325 592 1582 597 1588 4 5 11 -189 14 -430 4 -241
9 -535 11 -653 2 -118 4 -309 4 -424 1 -138 4 -207 11 -200 6 6 14 181 20 429
18 791 31 1230 38 1280 l7 50 49 -125 c55 -141 206 -549 333 -900 110 -305
152 -412 171 -430 13 -13 14 -13 7 5 -29 78 -575 1721 -585 1763 -8 28 -16 52
-19 52 -3 0 -47 -125 -98 -278z"/>
<path d="M1570 6101 c0 -6 12 -13 28 -17 62 -14 123 -37 154 -59 45 -31 210
-113 277 -136 72 -25 163 -24 220 2 25 11 74 44 110 73 93 75 144 99 198 93
44 -5 52 0 31 21 -20 20 -59 13 -143 -24 -189 -85 -318 -108 -441 -79 -32 7
-120 38 -194 68 -134 54 -240 80 -240 58z"/>
<path d="M1400 6069 c-122 -22 -207 -75 -245 -154 -24 -49 -27 -63 -21 -118 7
-64 21 -135 29 -143 2 -3 6 28 9 69 9 142 77 241 210 306 85 41 90 53 18 40z"/>
<path d="M4763 5643 c-106 -105 -314 -335 -584 -643 -274 -313 -328 -388 -419
-575 -71 -147 -229 -589 -216 -603 2 -2 24 18 48 45 23 26 77 84 119 128 41
44 122 133 178 198 57 65 147 164 200 221 171 181 786 849 910 988 l23 27 -36
31 c-44 39 -93 139 -103 210 -5 30 -13 55 -20 57 -6 2 -52 -35 -100 -84z"/>
<path d="M4963 5332 c-124 -147 -194 -233 -303 -372 -25 -32 -75 -95 -111
-141 -62 -79 -95 -129 -85 -129 2 0 48 55 102 122 55 67 131 159 169 204 39
46 84 101 100 122 17 22 68 85 115 141 158 190 174 212 153 210 -5 0 -67 -71
-140 -157z"/>
<path d="M1584 4462 c4 -6 33 -28 64 -49 128 -85 222 -212 222 -299 0 -34 -9
-56 -46 -111 -130 -193 -193 -408 -239 -813 -10 -86 10 -50 45 85 112 427 262
716 466 899 50 44 55 52 52 85 l-3 36 -85 7 c-121 9 -291 69 -474 166 -5 3 -6
0 -2 -6z"/>
<path d="M5180 4029 c0 -5 5 -7 10 -4 6 3 10 8 10 11 0 2 -4 4 -10 4 -5 0 -10
-5 -10 -11z"/>
<path d="M7610 3771 c0 -21 154 -171 221 -216 155 -104 316 -154 519 -162 351
-14 624 102 822 350 l30 37 -796 0 c-476 0 -796 -4 -796 -9z"/>
<path d="M5080 3762 c0 -17 136 -155 195 -197 165 -118 338 -174 560 -182 114
-4 159 -1 240 15 229 45 418 151 540 303 l56 69 -796 0 c-437 0 -795 -4 -795
-8z"/>
<path d="M2761 1978 c130 -351 225 -811 249 -1213 7 -106 7 -237 0 -389 -5
-126 -9 -230 -7 -231 1 -2 17 -10 35 -19 29 -15 33 -15 38 -1 4 9 4 188 1 398
-5 328 -8 400 -27 512 -12 72 -24 145 -27 163 -12 75 16 19 79 -156 63 -178
138 -448 138 -500 0 -13 5 -22 11 -20 14 5 14 4 -1 101 -42 293 -164 723 -279
992 -64 150 -213 437 -229 443 -7 2 1 -32 19 -80z"/>
</g>
</svg>
